<?xml version="1.0" standalone="no"?>
<!DOCTYPE svg PUBLIC "-//W3C//DTD SVG 20010904//EN"
 "http://www.w3.org/TR/2001/REC-SVG-20010904/DTD/svg10.dtd">
<svg version="1.0" xmlns="http://www.w3.org/2000/svg"
 width="300.000000pt" height="300.000000pt" viewBox="0 0 300.000000 300.000000"
 preserveAspectRatio="xMidYMid meet">

<g transform="translate(0.000000,300.000000) scale(0.100000,-0.100000)"
fill="#000000" stroke="none">
<path d="M945 2200 c22 -5 54 -13 70 -20 17 -6 26 -7 20 -2 -16 14 -75 32
-104 31 -19 -1 -15 -3 14 -9z"/>
<path d="M2013 2197 c-17 -7 -35 -16 -40 -20 -4 -5 6 -3 22 3 17 7 48 15 70
20 34 7 36 8 10 8 -16 0 -44 -5 -62 -11z"/>
<path d="M1145 2091 c22 -25 58 -68 80 -95 41 -50 86 -77 127 -75 14 1 7 5
-17 10 -22 5 -51 18 -65 29 -24 18 -24 20 -6 33 10 7 17 22 14 33 -4 24 -46
32 -54 10 -5 -13 -19 -3 -63 42 -31 33 -38 38 -16 13z m125 -65 c0 -16 -18
-31 -27 -22 -8 8 5 36 17 36 5 0 10 -6 10 -14z"/>
<path d="M1847 2080 c-42 -47 -56 -57 -61 -45 -8 23 -50 15 -54 -9 -3 -11 4
-26 14 -33 18 -13 18 -15 -6 -33 -14 -11 -43 -24 -65 -29 -24 -5 -31 -9 -17
-10 41 -2 86 25 127 75 22 27 60 70 84 97 24 26 41 47 38 47 -3 0 -30 -27 -60
-60z m-79 -64 c3 -12 -1 -17 -10 -14 -7 3 -15 13 -16 22 -3 12 1 17 10 14 7
-3 15 -13 16 -22z"/>
<path d="M803 2111 c-37 -23 -63 -68 -63 -107 0 -21 -3 -25 -17 -19 -70 28
-144 12 -206 -44 -49 -44 -77 -102 -77 -161 0 -102 86 -200 175 -200 39 0 85
46 85 85 0 61 -66 98 -103 57 -19 -20 -23 -57 -8 -67 6 -3 9 6 8 21 -4 56 64
57 71 1 4 -33 -37 -77 -70 -77 -58 0 -98 60 -98 148 0 97 37 172 104 213 41
25 66 24 110 -6 20 -14 39 -25 41 -25 3 0 5 22 5 48 0 95 82 132 207 93 66
-20 103 -39 282 -149 69 -43 92 -52 130 -52 52 0 84 18 111 62 17 28 18 29 25
9 12 -40 63 -71 114 -71 40 0 62 8 132 52 179 110 216 129 282 149 125 39 207
2 207 -93 0 -26 2 -48 5 -48 2 0 21 11 41 25 42 29 64 31 102 11 68 -35 111
-119 112 -214 0 -122 -72 -188 -144 -131 -21 16 -26 29 -24 52 6 59 75 62 71
3 -1 -15 2 -24 8 -21 15 10 10 51 -9 68 -41 37 -102 3 -102 -58 0 -39 46 -85
85 -85 89 0 175 98 175 200 0 119 -120 233 -229 217 -20 -3 -44 -8 -53 -12
-15 -6 -18 -2 -18 21 0 40 -33 90 -71 110 -23 12 -50 15 -99 12 -88 -5 -169
-45 -279 -138 -47 -40 -95 -76 -108 -81 -58 -22 -140 -1 -163 40 -5 11 -10 36
-10 56 0 65 74 111 103 64 15 -25 1 -49 -28 -49 -15 0 -24 -4 -20 -10 11 -18
53 -11 69 12 23 32 20 55 -10 84 -19 20 -31 24 -52 19 -34 -8 -70 -42 -87 -80
l-12 -30 -8 26 c-9 34 -52 76 -87 84 -21 5 -33 1 -52 -19 -30 -29 -33 -52 -10
-84 16 -23 58 -30 69 -12 4 6 -5 10 -20 10 -29 0 -43 24 -28 49 29 47 103 1
103 -64 0 -20 -5 -45 -10 -56 -23 -41 -105 -62 -163 -40 -13 5 -61 41 -108 81
-113 95 -192 134 -284 138 -56 2 -76 -1 -102 -17z"/>
<path d="M1410 2051 c19 -5 27 -16 31 -41 l6 -35 2 31 c1 35 -14 54 -43 53
-18 -1 -17 -2 4 -8z"/>
<path d="M1572 2048 c-7 -7 -12 -19 -11 -27 0 -11 3 -10 8 4 4 11 19 23 32 26
21 6 21 7 4 8 -12 1 -26 -4 -33 -11z"/>
<path d="M466 1958 c-28 -29 -30 -33 -6 -12 19 17 44 36 55 42 11 6 14 12 7
12 -7 0 -32 -19 -56 -42z"/>
<path d="M2495 1988 c11 -6 36 -25 55 -42 24 -21 22 -17 -6 12 -24 23 -49 42
-56 42 -7 0 -4 -6 7 -12z"/>
<path d="M1405 1949 c-16 -10 -25 -19 -19 -19 7 0 22 9 35 20 30 24 23 24 -16
-1z"/>
<path d="M1589 1951 c13 -12 28 -21 34 -21 12 0 11 0 -28 24 l-30 17 24 -20z"/>
<path d="M391 1844 c0 -11 3 -14 6 -6 3 7 2 16 -1 19 -3 4 -6 -2 -5 -13z"/>
<path d="M2611 1844 c0 -11 3 -14 6 -6 3 7 2 16 -1 19 -3 4 -6 -2 -5 -13z"/>
<path d="M383 1775 c0 -27 2 -38 4 -22 2 15 2 37 0 50 -2 12 -4 0 -4 -28z"/>
<path d="M912 1813 c-7 -2 -17 -13 -23 -24 -9 -19 -9 -19 23 1 28 17 78 28 78
16 0 -2 -16 -39 -36 -82 -63 -138 -75 -174 -60 -174 8 0 21 22 30 50 9 28 27
73 39 102 l23 51 39 -101 c22 -56 43 -102 46 -102 3 0 11 22 18 48 6 27 31 88
54 135 24 49 38 87 31 87 -6 0 -21 -21 -32 -47 -11 -27 -31 -70 -43 -98 l-22
-49 -28 74 c-15 41 -28 85 -28 98 -1 20 -6 22 -48 21 -27 0 -54 -3 -61 -6z"/>
<path d="M2623 1775 c0 -27 2 -38 4 -22 2 15 2 37 0 50 -2 12 -4 0 -4 -28z"/>
<path d="M1707 1773 c-4 -3 -7 -12 -7 -20 0 -11 4 -11 19 -1 11 7 17 16 15 20
-6 10 -18 10 -27 1z"/>
<path d="M1803 1700 c-28 -12 -30 -20 -3 -13 25 7 25 7 -5 -72 -23 -63 -23
-65 -5 -65 11 0 20 6 20 13 0 6 11 35 24 63 17 36 21 56 14 67 -10 19 -14 19
-45 7z"/>
<path d="M1893 1700 c-13 -5 -23 -12 -23 -14 0 -3 7 -3 16 1 14 5 16 2 10 -23
-4 -16 -9 -48 -13 -71 -5 -36 -3 -43 11 -43 9 0 28 11 42 25 30 31 32 31 36 3
5 -35 60 -37 93 -4 14 14 34 26 44 26 10 0 25 8 32 18 11 14 11 15 -1 5 -26
-24 -40 -15 -40 26 0 45 -19 66 -54 57 -22 -5 -35 -18 -101 -101 -32 -41 -42
-25 -21 35 23 65 16 79 -31 60z m192 -20 c3 -5 1 -10 -5 -10 -6 0 -10 -15 -8
-35 1 -25 -4 -42 -19 -57 -40 -39 -70 1 -42 55 26 50 59 71 74 47z"/>
<path d="M1177 1689 c-38 -23 -60 -102 -35 -127 20 -20 65 -14 95 14 l28 25
-31 -21 c-42 -29 -69 -24 -69 15 0 27 4 30 38 36 45 7 60 20 55 45 -4 22 -53
30 -81 13z m63 -12 c0 -19 -21 -37 -42 -37 -22 0 -23 13 -2 34 19 19 44 21 44
3z"/>
<path d="M1283 1652 l-23 -47 24 29 c24 28 24 28 31 6 5 -17 -1 -30 -26 -56
-18 -19 -28 -34 -23 -34 6 0 21 11 34 25 l24 26 13 -26 c21 -40 65 -30 98 22
l17 28 -27 -28 c-31 -33 -45 -31 -64 8 -13 27 -12 30 22 62 20 18 34 33 30 33
-4 0 -19 -12 -35 -27 l-27 -26 -10 26 c-15 39 -33 33 -58 -21z"/>
<path d="M1469 1674 c-5 -15 -12 -32 -15 -38 -3 -6 1 -2 10 8 15 19 16 18 25
-5 8 -21 4 -28 -27 -56 -21 -18 -31 -32 -24 -33 7 0 23 12 36 26 l22 26 17
-26 c22 -33 44 -33 79 1 l28 27 0 -27 c0 -32 23 -36 53 -9 19 16 20 16 14 0
-5 -13 -1 -18 13 -18 13 0 22 9 26 28 4 15 13 40 21 55 24 47 24 67 2 67 -12
0 -19 -7 -19 -18 0 -22 -55 -102 -70 -102 -15 0 -12 24 10 75 18 43 19 46 2
43 -9 -2 -29 -25 -43 -51 -45 -84 -79 -99 -93 -41 -6 22 -1 33 25 60 18 19 28
34 21 34 -6 0 -19 -11 -28 -25 -9 -14 -20 -25 -25 -25 -5 0 -11 11 -15 25 -8
33 -32 32 -45 -1z"/>
<path d="M400 1673 c0 -7 12 -25 28 -41 15 -15 20 -19 11 -7 -9 11 -21 29 -27
40 -6 11 -12 14 -12 8z"/>
<path d="M2600 1672 c0 -6 -12 -25 -27 -44 -22 -27 -23 -29 -4 -13 27 23 45
54 37 63 -3 3 -6 0 -6 -6z"/>
<path d="M555 1396 c-66 -30 -115 -111 -115 -188 1 -117 121 -230 229 -215 20
3 44 8 54 12 14 6 17 2 17 -21 0 -40 33 -90 71 -110 23 -12 50 -15 99 -12 88
5 169 45 279 138 47 40 95 76 108 81 58 22 140 1 163 -40 5 -11 10 -36 10 -56
0 -65 -74 -111 -103 -64 -15 25 -1 49 28 49 15 0 24 4 20 10 -11 18 -53 11
-69 -12 -23 -32 -20 -55 10 -84 19 -20 31 -24 52 -19 34 8 70 42 87 80 l12 30
8 -26 c9 -34 52 -76 87 -84 21 -5 33 -1 52 19 30 29 33 52 10 84 -16 23 -58
30 -69 12 -4 -6 5 -10 20 -10 29 0 43 -24 28 -49 -29 -47 -103 -1 -103 64 0
20 5 45 10 56 23 41 105 62 163 40 13 -5 61 -41 108 -81 110 -93 191 -133 279
-138 49 -3 76 0 99 12 38 20 71 70 71 110 0 23 3 27 18 21 127 -50 282 62 282
205 0 102 -86 200 -175 200 -39 0 -85 -46 -85 -85 0 -61 66 -98 103 -57 19 20
23 57 8 67 -6 3 -9 -6 -8 -21 4 -59 -65 -56 -71 3 -2 23 3 36 24 52 72 57 144
-9 144 -131 -1 -95 -44 -179 -112 -214 -38 -20 -60 -18 -102 11 -20 14 -39 25
-41 25 -3 0 -5 -22 -5 -48 0 -95 -82 -132 -207 -93 -66 20 -103 39 -282 149
-69 43 -92 52 -130 52 -52 0 -84 -18 -111 -62 -17 -28 -18 -29 -25 -9 -12 40
-63 71 -114 71 -40 0 -62 -8 -132 -52 -179 -110 -216 -129 -282 -149 -125 -39
-207 -2 -207 93 0 26 -2 48 -5 48 -2 0 -21 -11 -41 -25 -42 -29 -64 -31 -102
-11 -68 35 -111 119 -112 214 0 92 38 152 98 152 33 0 74 -44 70 -77 -7 -56
-75 -55 -71 1 1 15 -2 24 -8 21 -15 -10 -10 -51 9 -68 41 -37 102 -3 102 58 0
25 -8 40 -31 59 -34 29 -68 32 -114 12z"/>
<path d="M426 1359 c-14 -17 -26 -36 -26 -42 0 -7 6 -3 12 8 6 11 20 30 31 43
11 12 18 22 15 22 -4 0 -18 -14 -32 -31z"/>
<path d="M2571 1365 c9 -11 21 -29 27 -40 6 -11 12 -14 12 -8 0 7 -12 25 -27
41 -16 15 -21 19 -12 7z"/>
<path d="M1118 1323 c12 -2 22 -8 22 -13 0 -5 -10 -11 -22 -13 l-23 -4 23 -2
c27 -1 29 -28 2 -34 -17 -4 -16 -4 2 -3 19 1 23 7 23 36 0 30 -3 35 -25 37
-22 1 -22 1 -2 -4z"/>
<path d="M1206 1317 c3 -10 9 -15 12 -12 3 3 0 11 -7 18 -10 9 -11 8 -5 -6z"/>
<path d="M1285 1323 c11 -3 24 -10 28 -17 6 -7 7 -6 4 4 -2 8 -14 16 -28 17
-19 1 -20 1 -4 -4z"/>
<path d="M1350 1289 c0 -38 1 -40 28 -37 35 4 39 41 5 46 -13 2 -23 7 -23 12
0 5 10 11 23 13 19 4 18 4 -5 6 -26 1 -28 -2 -28 -40z m48 -16 c2 -8 -5 -13
-17 -13 -12 0 -21 6 -21 16 0 18 31 15 38 -3z"/>
<path d="M1448 1323 c6 -2 18 -2 25 0 6 3 1 5 -13 5 -14 0 -19 -2 -12 -5z"/>
<path d="M1511 1288 c1 -24 4 -33 6 -20 2 12 8 22 12 22 5 0 16 -10 25 -22
l17 -23 -11 23 c-6 12 -8 26 -5 31 3 5 -4 7 -15 4 -11 -3 -20 -1 -20 5 0 6 10
13 23 15 19 4 18 4 -5 6 -27 1 -28 -1 -27 -41z"/>
<path d="M1594 1318 c-4 -7 2 -18 14 -26 25 -16 28 -29 10 -35 -8 -2 -7 -3 2
-3 23 2 24 33 1 41 -28 8 -27 23 2 28 22 4 22 4 0 6 -12 0 -25 -4 -29 -11z"/>
<path d="M1673 1290 c0 -25 2 -35 4 -23 3 14 13 23 31 26 l27 4 -27 2 c-16 0
-28 8 -31 19 -3 9 -5 -3 -4 -28z"/>
<path d="M1777 1323 c-3 -5 7 -9 21 -8 22 0 27 -4 27 -25 0 -21 -5 -25 -27
-25 -16 1 -24 -3 -19 -8 26 -26 75 19 55 51 -12 18 -49 28 -57 15z"/>
<path d="M1888 1323 c27 -6 29 -30 2 -36 -17 -4 -16 -4 2 -3 34 2 32 40 -2 43
-22 1 -22 1 -2 -4z"/>
<path d="M1270 1296 c0 -2 9 -6 20 -9 11 -3 18 -1 14 4 -5 9 -34 13 -34 5z"/>
<path d="M1448 1293 c6 -2 18 -2 25 0 6 3 1 5 -13 5 -14 0 -19 -2 -12 -5z"/>
<path d="M1175 1272 c-3 -8 -3 -17 0 -20 3 -3 5 0 5 6 0 7 11 12 25 12 14 0
25 -5 25 -12 0 -6 3 -9 6 -5 3 3 2 11 -3 19 -11 18 -51 18 -58 0z"/>
<path d="M383 1215 c0 -27 2 -38 4 -22 2 15 2 37 0 50 -2 12 -4 0 -4 -28z"/>
<path d="M1448 1253 c6 -2 18 -2 25 0 6 3 1 5 -13 5 -14 0 -19 -2 -12 -5z"/>
<path d="M2623 1215 c0 -27 2 -38 4 -22 2 15 2 37 0 50 -2 12 -4 0 -4 -28z"/>
<path d="M391 1144 c0 -11 3 -14 6 -6 3 7 2 16 -1 19 -3 4 -6 -2 -5 -13z"/>
<path d="M2611 1144 c0 -11 3 -14 6 -6 3 7 2 16 -1 19 -3 4 -6 -2 -5 -13z"/>
<path d="M466 1033 c24 -24 49 -43 56 -43 7 0 4 6 -7 12 -11 6 -36 25 -55 42
-24 21 -22 17 6 -11z"/>
<path d="M2559 1054 c-13 -15 -37 -35 -54 -45 -16 -11 -24 -19 -17 -19 13 0
113 89 101 90 -3 0 -16 -12 -30 -26z"/>
<path d="M1295 1056 c-17 -7 -48 -35 -70 -62 -22 -27 -58 -70 -80 -95 -22 -25
-15 -20 16 13 44 45 58 55 63 42 8 -22 50 -14 54 10 3 11 -4 26 -14 33 -18 13
-18 15 6 33 14 11 43 24 65 29 28 6 32 9 15 10 -14 0 -39 -6 -55 -13z m-27
-90 c3 -12 -1 -17 -10 -14 -7 3 -15 13 -16 22 -3 12 1 17 10 14 7 -3 15 -13
16 -22z"/>
<path d="M1675 1059 c22 -5 51 -18 65 -29 24 -18 24 -20 6 -33 -10 -7 -17 -22
-14 -33 4 -24 46 -32 54 -10 5 13 19 3 63 -42 31 -33 38 -38 16 -13 -22 25
-58 68 -80 95 -41 50 -86 77 -127 75 -14 -1 -7 -5 17 -10z m95 -83 c0 -16 -18
-31 -27 -22 -8 8 5 36 17 36 5 0 10 -6 10 -14z"/>
<path d="M1381 1057 c2 -2 18 -11 34 -21 l30 -17 -24 20 c-13 12 -28 21 -34
21 -6 0 -8 -1 -6 -3z"/>
<path d="M1589 1039 l-24 -20 30 17 c39 24 40 24 28 24 -6 0 -21 -9 -34 -21z"/>
<path d="M1439 980 c-3 -26 -10 -36 -29 -41 -22 -6 -22 -7 -4 -8 29 -1 46 22
42 56 -4 27 -4 26 -9 -7z"/>
<path d="M1561 969 c-1 -22 24 -42 46 -36 14 4 13 5 -5 6 -13 1 -26 10 -32 24
-6 15 -9 17 -9 6z"/>
<path d="M1000 805 c-19 -7 -48 -14 -65 -15 -20 -2 -24 -4 -11 -7 21 -6 104
15 112 28 6 11 8 11 -36 -6z"/>
<path d="M1974 811 c8 -13 91 -34 112 -28 14 3 12 5 -7 6 -15 0 -45 8 -68 16
-23 8 -39 11 -37 6z"/>
</g>
</svg>
